<svg width="996" height="1000" viewBox="0 0 996 1000" fill="none" xmlns="http://www.w3.org/2000/svg">
<g filter="url(#filter0_dd_1008_24731)">
<mask id="mask0_1008_24731" style="mask-type:alpha" maskUnits="userSpaceOnUse" x="8" y="8" width="980" height="980">
<path fill-rule="evenodd" clip-rule="evenodd" d="M498 988C768.62 988 988 768.62 988 498C988 227.38 768.62 8 498 8C227.38 8 8 227.38 8 498C8 768.62 227.38 988 498 988ZM498 877C707.316 877 877 707.316 877 498C877 288.684 707.316 119 498 119C288.684 119 119 288.684 119 498C119 707.316 288.684 877 498 877Z" fill="#C4C4C4"/>
<rect x="442" y="20" width="112" height="879" fill="#C4C4C4"/>
<rect x="457.401" y="384.033" width="112" height="509.287" transform="rotate(37.979 457.401 384.033)" fill="#C4C4C4"/>
<rect width="112" height="509.287" transform="matrix(-0.788236 0.615373 0.615373 0.788236 538.282 384.033)" fill="#C4C4C4"/>
</mask>
<g mask="url(#mask0_1008_24731)">
<rect x="8" y="8" width="490" height="490" fill="#005BBB"/>
<rect x="498" y="8" width="490" height="326" fill="white"/>
<rect x="498" y="662" width="490" height="326" fill="#D52B1E"/>
<rect x="8" y="498" width="490" height="490" fill="#FFD500"/>
<rect x="498" y="334" width="490" height="328" fill="#0039A6"/>
</g>
</g>
<defs>
<filter id="filter0_dd_1008_24731" x="0" y="0" width="996" height="1000" filterUnits="userSpaceOnUse" color-interpolation-filters="sRGB">
<feFlood flood-opacity="0" result="BackgroundImageFix"/>
<feColorMatrix in="SourceAlpha" type="matrix" values="0 0 0 0 0 0 0 0 0 0 0 0 0 0 0 0 0 0 127 0" result="hardAlpha"/>
<feOffset/>
<feGaussianBlur stdDeviation="4"/>
<feComposite in2="hardAlpha" operator="out"/>
<feColorMatrix type="matrix" values="0 0 0 0 0 0 0 0 0 0 0 0 0 0 0 0 0 0 0.25 0"/>
<feBlend mode="normal" in2="BackgroundImageFix" result="effect1_dropShadow_1008_24731"/>
<feColorMatrix in="SourceAlpha" type="matrix" values="0 0 0 0 0 0 0 0 0 0 0 0 0 0 0 0 0 0 127 0" result="hardAlpha"/>
<feOffset dy="4"/>
<feGaussianBlur stdDeviation="4"/>
<feComposite in2="hardAlpha" operator="out"/>
<feColorMatrix type="matrix" values="0 0 0 0 0 0 0 0 0 0 0 0 0 0 0 0 0 0 0.25 0"/>
<feBlend mode="normal" in2="effect1_dropShadow_1008_24731" result="effect2_dropShadow_1008_24731"/>
<feBlend mode="normal" in="SourceGraphic" in2="effect2_dropShadow_1008_24731" result="shape"/>
</filter>
</defs>
</svg>
